<?xml version="1.0" standalone="yes"?>
<svg xmlns="http://www.w3.org/2000/svg" width="512" height="512">
<path style="fill:#020101; stroke:none;" d="M0 0L0 233L1 233C1.14939 178.863 30.9197 133.786 59.7708 91C62.2422 87.3351 59.7019 82.4878 61.9282 79.5023C63.7092 77.1142 67.5655 79.0228 70 78.304C73.6242 77.234 76.4261 73.5645 79 71C117.398 32.7423 177.581 1.15265 233 1L211 0L164 0L0 0z"/>
<path style="fill:#a26b8a; stroke:none;" d="M70 80C82.5461 83.5603 89.6644 79.6625 102 78L97.51 98L102 119L81 114.51L61 119C62.5671 107.372 67.4891 99.7275 63 88C49.1172 97.9853 39.3456 117.39 31.0008 132C0.453234 185.481 -8.04998 253.196 5.65123 313C9.5214 329.893 15.179 346.092 22.0008 362C24.5184 367.871 27.2739 376.75 33 380C36.7931 367.229 48.0448 364.008 60 364C45.033 328.051 33.7088 296.64 35.811 257.004C35.9785 253.846 33.1269 250.929 33.5926 248.12C34.0085 245.61 36.6114 243.659 37.2307 240.957C48.5854 191.416 68.821 148.524 110 116.424C124.981 104.746 142.118 94.6108 160 88.0532C169.741 84.4811 182.892 83.4859 191.787 78.5671C197.24 75.5515 200.629 65.7767 204.87 61.0394C215.402 49.2773 229.239 41.3375 245 39.2894C263.687 36.8611 282.685 43.8938 295.996 57.0146C300.53 61.484 304.6 66.412 307.688 72C309.435 75.1628 310.733 80.7766 313.699 82.9722C317.384 85.7003 329.492 84.6179 333.892 83.8519C339.933 82.8001 345.216 66.7722 349.3 62C360.418 49.0105 375.113 41.1808 392 39C373.156 21.3546 338.74 11.2989 314 6C245.929 -8.57971 173.417 2.46008 115 41.3333C99.1296 51.8943 81.1001 64.2421 70 80z"/>
<path style="fill:#020101; stroke:none;" d="M279 0L279 1C309.695 1.08456 341.643 12.9406 369 25.8889C376.501 29.4394 383.307 34.8324 391 37.9259C396.288 40.0526 402.451 38.5657 408 39.4391C419.392 41.2322 430.401 46.5063 439 54.1736C448.323 62.4864 455.519 72.8758 458.842 85C460.473 90.9522 459.654 98.5917 462.419 104C467.566 114.067 475.262 122.986 480.691 133C496.751 162.621 510.906 198.773 511 233L512 233L512 0L279 0z"/>
<path style="fill:#544c97; stroke:none;" d="M37 244L51.8256 233.207L58.6489 242.711L66.7932 251.826L48.1991 266.793L36 253C34.3326 291.836 40.0463 329.813 60 364C54.9724 364.001 49.8117 363.894 45 365.613C27.0405 372.031 32 397.217 32 412C32 424.839 29.8706 440.63 45 445.891C53.8335 448.963 65.7363 447 75 447L138 447L348 447L417 447C422.222 447 437.243 449.659 439.069 442.946C441.563 433.772 421.802 437 417 437L339 437L136 437L77 437C68.9383 437 57.6034 439.026 50.0008 436.106C46.0834 434.602 42.985 431.15 42.2284 427C40.0405 414.999 40.0405 396.001 42.2284 384C42.9212 380.2 45.5575 377.019 49.0039 375.318C56.8388 371.451 70.4136 374 79 374L149 374L244 374L244 297L174 297C161.743 297 147.914 298.781 136 295.51C118.869 290.807 108.007 270.532 115.349 254C127.224 227.261 162.342 234 186 234L390 234L454 234C458.88 234 472.47 236.875 474.338 230.944C477.206 221.839 459.537 224 455 224C432.338 224 409.712 225 387 225L165 225C155.852 225 146.05 224.014 137 225.439C122.863 227.665 100.589 236.404 87.0154 227.146C74.2935 218.468 79.5885 186.774 80.0154 173C80.1268 169.406 81.6507 159.378 83.7284 156.649C85.1781 154.745 101.389 142.936 102.621 143.346C105.92 144.441 107.085 151.06 109.39 153.535C112.741 157.135 116.877 158.646 117 164C122.23 163.829 124.4 162.326 125 157L155 157C155.012 160.476 154.625 166.626 159.961 165.623C164.601 164.752 163.637 158.579 168.109 157.318C173.707 155.739 181.203 157 187 157C197.356 157 208.76 155.652 219 157.213C224.821 158.1 230.231 161.656 236 163.105C259.369 168.976 279.07 157 302 157C321.99 157 344.248 154.226 364 157.213C379.256 159.52 390.581 167.125 407 164.561C441.837 159.12 466.611 126.234 460.385 91C452.729 47.6692 401.487 23.9951 364 48.3449C356.047 53.5111 349.232 59.9822 344.09 68C341.453 72.1118 339.685 80.259 335.582 82.9722C331.76 85.4991 322.441 84.339 318.015 83.9414C310.301 83.2483 305.546 66.6602 300.7 61C289.971 48.4684 273.74 39.4259 257 39.0146C237.655 38.5394 220.306 44.1741 206.579 58.2855C201.353 63.6581 197.335 75.2204 190.895 78.5671C185.687 81.2738 178.623 81.5494 173 83.3441C159.436 87.6737 146.458 92.9117 134 99.8619C84.1698 127.661 39.5444 184.891 37 244z"/>
<path style="fill:#a26b8a; stroke:none;" d="M245 49L245 50L250 50L245 49z"/>
<path style="fill:#c3cac7; stroke:none;" d="M250 49.439C242.735 50.2266 231.965 51.0908 226.514 56.6381C223.078 60.1352 223.051 67.4005 223.004 72C222.851 86.867 227.944 100.684 237.616 111.961C251.76 128.453 275.424 130.241 295.957 126.852C307.537 124.94 305.663 98.0633 303.764 90C298.261 66.6322 274.864 46.7436 250 49.439z"/>
<path style="fill:#a26b8a; stroke:none;" d="M255 49L255 50L260 50L255 49M390 49L390 50L395 50L390 49z"/>
<path style="fill:#c3cac7; stroke:none;" d="M395 49.439C387.957 50.2025 376.827 50.983 371.728 56.6381C360.17 69.4565 372.421 99.3114 381.326 110C396.223 127.883 419.654 130.723 441.892 126.852C452.582 124.991 450.893 97.4874 449.101 90C443.477 66.4995 420.036 46.7249 395 49.439z"/>
<path style="fill:#a26b8a; stroke:none;" d="M400 49L400 50L405 50L400 49M240.667 50.3333L241.333 50.6667L240.667 50.3333M263.667 50.3333L264.333 50.6667L263.667 50.3333M385.667 50.3333L386.333 50.6667L385.667 50.3333M408.667 50.3333L409.333 50.6667L408.667 50.3333M236.667 51.3333L237.333 51.6667L236.667 51.3333M267.667 51.3333L268.333 51.6667L267.667 51.3333M381.667 51.3333L382.333 51.6667L381.667 51.3333M412.667 51.3333L413.333 51.6667L412.667 51.3333M233.667 52.3333L234.333 52.6667L233.667 52.3333M270 52L271 53L270 52M379 52L380 53L379 52M415.667 52.3333L416.333 52.6667L415.667 52.3333M231 53L232 54L231 53M273 53L274 54L273 53M376 53L377 54L376 53M418 53L419 54L418 53M229 54L230 55L229 54M275 54L276 55L275 54M374 54L375 55L374 54M420 54L421 55L420 54M227 55L228 56L227 55M277 55L278 56L277 55M372 55L373 56L372 55M422 55L423 56L422 55M225 56L226 57L225 56M279 56L280 57L279 56M424 56L425 57L424 56M224 57C207.134 68.5194 196.345 88.222 199.59 109C200.368 113.978 201.106 122.792 205.638 125.972C209.016 128.342 216.066 127 220 127L258 127L258 126C238.203 117.714 225.206 98.0508 223.17 77C222.549 70.5826 225.829 62.9503 224 57M280 57L281 58L280 57M403 127L403 126C376.411 114.528 363.366 84.1652 371 57C351.685 63.4065 343.664 88.7039 344.918 107C345.281 112.296 345.843 122.533 350.649 125.972C353.98 128.356 361.101 127 365 127L403 127M426 57L427 58L426 57M282 58L283 59L282 58M427 58L428 59L427 58M283 59L284 60L283 59M430 60L431 61L430 60M286 61L287 62L286 61M431 61L432 62L431 61M287 62L288 63L287 62M432 62L433 63L432 62M288 63L289 64L288 63M289 64L290 65L289 64M290 65L291 66L290 65M291 66L292 67L291 66M436 66L437 67L436 66M292 67L293 68L292 67M437 67L438 68L437 67M293 68L294 69L293 68M438 68L439 69L438 68M439 69L440 70L439 69M295 71L296 72L295 71M296 72L297 73L296 72M441 72L442 73L441 72M297 74L298 75L297 74M443 75L444 76L443 75M298 76L299 77L298 76z"/>
<path style="fill:#feaa24; stroke:none;" d="M61 118L82 114.358L102 119L97.358 99L101 78C92.3223 80.4626 83.9344 84.469 74.9961 81.5386C71.9885 80.5525 64.697 75.857 61.777 78.777C58.5273 82.0267 64.6409 91.4066 65.5316 94.9606C67.3569 102.244 62.9816 111.017 61 118z"/>
<path style="fill:#c3cac7; stroke:none;" d="M63 77L64 78L63 77z"/>
<path style="fill:#a26b8a; stroke:none;" d="M299 77L300 78L299 77M444 77L445 78L444 77z"/>
<path style="fill:#c3cac7; stroke:none;" d="M98.6667 78.3333L99.3333 78.6667L98.6667 78.3333M101 78L102 79L101 78M94.6667 79.3333L95.3333 79.6667L94.6667 79.3333z"/>
<path style="fill:#a26b8a; stroke:none;" d="M445 79L446 80L445 79z"/>
<path style="fill:#c3cac7; stroke:none;" d="M60 80L61 81L60 80M71 80L72 81L71 80M91.6667 80.3333L92.3333 80.6667L91.6667 80.3333z"/>
<path style="fill:#a26b8a; stroke:none;" d="M300 80L301 81L300 80z"/>
<path style="fill:#c3cac7; stroke:none;" d="M74.6667 81.3333L75.3333 81.6667L74.6667 81.3333M88 81L89 82L88 81z"/>
<path style="fill:#a26b8a; stroke:none;" d="M446 81L447 82L446 81z"/>
<path style="fill:#c3cac7; stroke:none;" d="M78 82L79 83L78 82M84.6667 82.3333L85.3333 82.6667L84.6667 82.3333M101.333 82.6667L101.667 83.3333L101.333 82.6667z"/>
<path style="fill:#a26b8a; stroke:none;" d="M301 82L302 83L301 82z"/>
<path style="fill:#c3cac7; stroke:none;" d="M81 83L82 84L81 83z"/>
<path style="fill:#a26b8a; stroke:none;" d="M302.333 84.6667L302.667 85.3333L302.333 84.6667M447 84L448 85L447 84z"/>
<path style="fill:#c3cac7; stroke:none;" d="M100.333 85.6667L100.667 86.3333L100.333 85.6667z"/>
<path style="fill:#a26b8a; stroke:none;" d="M448.333 86.6667L448.667 87.3333L448.333 86.6667z"/>
<path style="fill:#c3cac7; stroke:none;" d="M62 87L63 88L62 87z"/>
<path style="fill:#a26b8a; stroke:none;" d="M303.333 87.6667L303.667 88.3333L303.333 87.6667z"/>
<path style="fill:#c3cac7; stroke:none;" d="M63 88L64 89L63 88M99.3333 89.6667L99.6667 90.3333L99.3333 89.6667z"/>
<path style="fill:#a26b8a; stroke:none;" d="M449.333 90.6667L449.667 91.3333L449.333 90.6667z"/>
<path style="fill:#c3cac7; stroke:none;" d="M64.3333 91.6667L64.6667 92.3333L64.3333 91.6667z"/>
<path style="fill:#a26b8a; stroke:none;" d="M304 91L304 94L305 94L304 91z"/>
<path style="fill:#c3cac7; stroke:none;" d="M98.3333 92.6667L98.6667 93.3333L98.3333 92.6667M65.3333 94.6667L65.6667 95.3333L65.3333 94.6667z"/>
<path style="fill:#a26b8a; stroke:none;" d="M316 95L316 96L334 104L335 95L316 95z"/>
<path style="fill:#c3cac7; stroke:none;" d="M97 96L98 97L97 96z"/>
<path style="fill:#a26b8a; stroke:none;" d="M450 96L450 109L451 109L450 96z"/>
<path style="fill:#c3cac7; stroke:none;" d="M66 98L67 99L66 98M97.3333 100.667L97.6667 101.333L97.3333 100.667z"/>
<path style="fill:#a26b8a; stroke:none;" d="M305 100L305 106L306 106L305 100z"/>
<path style="fill:#c3cac7; stroke:none;" d="M65.3333 101.667L65.6667 102.333L65.3333 101.667M98.3333 103.667L98.6667 104.333L98.3333 103.667z"/>
<path style="fill:#a26b8a; stroke:none;" d="M461 103C460.873 118.357 454.394 133.818 443.91 144.996C439.045 150.183 432.483 153.572 428 159C443.323 166.972 438 191.436 438 206C438 211.676 439.144 221.763 431.956 223.682C423.391 225.969 411.86 224 403 224L341 224L141 224L141 225L397 225C417.054 225 436.982 224 457 224C461.206 224 475.058 222.41 474.079 229.992C473.245 236.447 460.392 234 456 234L396 234L141 234L141 235L469 235C463.779 256.191 469.044 275.973 468 297C475.575 297.781 475.589 305.663 467.999 306.852C452.449 309.288 434.753 307 419 307C414.771 327.487 405.94 344.93 398 364C408.809 364 420.261 362.906 431 364.109C434.449 364.495 440.369 367.47 437.338 371.763C433.414 377.32 412.346 374 406 374L310 374L311 296L310 296C306.616 307.921 300.043 317.905 288 322.532C269.434 329.665 246.754 315.968 245 296L244 296L244 374L50 374L50 375L244 375L245 401L277 381.431L309 401L310 375L434 375L434 422C434 424.724 432.445 435.469 436.318 436.079C442.052 436.982 450.578 423.839 453.75 420C468.606 402.02 480.733 382.233 490.306 361C518.669 298.083 519.5 223.942 494 160C486.743 141.802 476.398 115.718 461 103z"/>
<path style="fill:#c3cac7; stroke:none;" d="M64 105L65 106L64 105M99.3333 107.667L99.6667 108.333L99.3333 107.667M63.3333 108.667L63.6667 109.333L63.3333 108.667M100.333 110.667L100.667 111.333L100.333 110.667z"/>
<path style="fill:#a26b8a; stroke:none;" d="M304 110L304 113L305 113L304 110z"/>
<path style="fill:#c3cac7; stroke:none;" d="M62.3333 111.667L62.6667 112.333L62.3333 111.667z"/>
<path style="fill:#a26b8a; stroke:none;" d="M449 112L449 115L450 115L449 112z"/>
<path style="fill:#c3cac7; stroke:none;" d="M79 114L80 115L79 114M83.6667 114.333L84.3333 114.667L83.6667 114.333M101 114L102 115L101 114M61.3333 115.667L61.6667 116.333L61.3333 115.667M75.6667 115.333L76.3333 115.667L75.6667 115.333M86.6667 115.333L87.3333 115.667L86.6667 115.333z"/>
<path style="fill:#a26b8a; stroke:none;" d="M303.333 115.667L303.667 116.333L303.333 115.667z"/>
<path style="fill:#c3cac7; stroke:none;" d="M72.6667 116.333L73.3333 116.667L72.6667 116.333M90 116L91 117L90 116M68.6667 117.333L69.3333 117.667L68.6667 117.333M93.6667 117.333L94.3333 117.667L93.6667 117.333z"/>
<path style="fill:#a26b8a; stroke:none;" d="M448 117L449 118L448 117z"/>
<path style="fill:#c3cac7; stroke:none;" d="M61 118L62 119L61 118M65.6667 118.333L66.3333 118.667L65.6667 118.333M97 118L98 119L97 118z"/>
<path style="fill:#a26b8a; stroke:none;" d="M302 119L303 120L302 119M447 120L448 121L447 120M301 122L302 123L301 122M446 122L447 123L446 122M300 124L301 125L300 124M445 125L446 126L445 125M299 126L300 127L299 126M260 127L260 128L299 128C288.726 123.689 271.172 127 260 127M406 127L406 128L444 128C433.964 123.789 416.911 127 406 127M214 138C230.501 161.228 274.477 161.259 291 138L214 138M359 138C375.523 161.259 419.499 161.228 436 138L359 138z"/>
<path style="fill:#c3cac7; stroke:none;" d="M100 142L82 160C89.5362 164.694 93.6087 169.854 97 178L118 163C115.58 157.917 105.185 143.623 100 142z"/>
<path style="fill:#a26b8a; stroke:none;" d="M103 142L104 143L103 142M99 143L100 144L99 143M98 144L99 145L98 144M104 144L105 145L104 144M105 146L106 147L105 146M96 147L97 148L96 147M95 148L96 149L95 148M106 149L107 150L106 149M107 151L108 152L107 151M91 152L92 153L91 152M89 153L90 154L89 153M86 154L87 155L86 154M110 154L111 155L110 154M84 155L85 156L84 155M111 155L112 156L111 155M82 156L83 157L82 156M112 156L113 157L112 156z"/>
<path style="fill:#feaa24; stroke:none;" d="M114 157L115 158L114 157z"/>
<path style="fill:#a26b8a; stroke:none;" d="M125 157L125 158L154 158L154 163L155 163L155 157L125 157M165 157L165 158L181 158L165 157z"/>
<path style="fill:#feaa24; stroke:none;" d="M165 158C163.504 167.394 155.091 167.769 154 158L125 158C122.748 165.923 115.172 163.163 109.09 166.796C104.307 169.655 101.519 174.749 97 178C94.9151 170.763 91.4427 164.476 84 162C75.9961 174.74 78.8763 200.236 80.0934 215C80.5321 220.322 83.1176 225.066 88.0039 227.543C93.8428 230.504 101.68 228.657 108 229.09C121.001 229.98 130.316 225.844 143 224.286C151.815 223.204 161.126 224 170 224L358 224L411 224C417.389 224 427.888 226.013 433.775 223.397C439.254 220.962 438 211.784 438 207C438 195.366 443.53 165.081 429.996 159.562C426.04 157.948 421.707 160.745 418 161.996C411.269 164.267 403.153 166.159 396 165.791C385.441 165.248 376.986 159.735 367 158.213C356.355 156.59 344.761 158.245 334 157.985C318.017 157.6 299.882 155.92 284 158.21C272.972 159.8 263.64 165.921 252 165.921C240.602 165.921 231.666 159.678 221 157.923C203.101 154.978 183.078 158 165 158z"/>
<path style="fill:#a26b8a; stroke:none;" d="M194 157L194 158L220 158L194 157M221 157L222 158L221 157M283 157L283 158L325 158C314.012 153.389 294.957 157 283 157M328 157L328 158L367 158C356.726 153.689 339.172 157 328 157M223 158L224 159L223 158M281 158L282 159L281 158M426 158L427 159L426 158M116 159L117 160L116 159M164 159L164 162L165 162L164 159M225 159L226 160L225 159M279 159L280 160L279 159M424 159L425 160L424 159M83 160L84 161L83 160M117 160L118 161L117 160M227 160L228 161L227 160M276 160L277 161L276 160M373 160L374 161L373 160M422 160L423 161L422 160M84 161L85 162L84 161M124 161L125 162L124 161M230 161L231 162L230 161M274 161L275 162L274 161M375 161L376 162L375 161M419 161L420 162L419 161M83 162L84 163L83 162M232.667 162.333L233.333 162.667L232.667 162.333M271 162L272 163L271 162M378 162L379 163L378 162M416 162L417 163L416 162M236.667 163.333L237.333 163.667L236.667 163.333M267.667 163.333L268.333 163.667L267.667 163.333M381.667 163.333L382.333 163.667L381.667 163.333M412.667 163.333L413.333 163.667L412.667 163.333M82 164L83 165L82 164M118 164L118 165L122 165L118 164M163 164L164 165L163 164M240 164L240 165L243 165L240 164M262 164L262 165L265 165L262 164M385 164L385 165L388 165L385 164M407.667 164.333L408.333 164.667L407.667 164.333M81 165L82 166L81 165M162 165L163 166L162 165M247 165L247 166L257 166L247 165M393 165L393 166L401 166L393 165M158 166L158 167L161 167L158 166M80.3333 167.667L80.6667 168.333L80.3333 167.667M80.3333 218.667L80.6667 219.333L80.3333 218.667M81 221L82 222L81 221M82 223L83 224L82 223M83 224L84 225L83 224M84 225L85 226L84 225M135.667 225.333L136.333 225.667L135.667 225.333M85 226L86 227L85 226M131 226L132 227L131 226M87 227L88 228L87 227M128 227L129 228L128 227M88.6667 228.333L89.3333 228.667L88.6667 228.333M126 228L127 229L126 228M91 229L91 230L112 230L91 229M124 229L125 230L124 229z"/>
<path style="fill:#c3cac7; stroke:none;" d="M50 232L39.9992 242.926L32.9213 248.12L37.9892 254.325L47 268C52.083 265.58 66.3774 255.185 68 250L50 232z"/>
<path style="fill:#a26b8a; stroke:none;" d="M53 232L54 233L53 232M49 233L50 234L49 233M48 234L49 235L48 234M54 234L55 235L54 234M136 235L137 236L136 235z"/>
<path style="fill:#c3cac7; stroke:none;" d="M244 297L244 261L311 261L311 297L418 297C433.634 297 454.018 300.428 469 296C465.15 275.566 465.149 255.439 469 235L238 235L169 235C158 235 144.544 232.919 134 236.36C108.178 244.786 106.131 282.606 131 293.651C139.588 297.465 148.953 295.309 158 296.17C186.311 298.864 215.543 297 244 297z"/>
<path style="fill:#a26b8a; stroke:none;" d="M55 236L56 237L55 236M133 236L134 237L133 236M46 237L47 238L46 237M130 237L131 238L130 237M45 238L46 239L45 238M56 239L57 240L56 239M125 240L126 241L125 240M57 241L58 242L57 241M124 241L125 242L124 241M41 242L42 243L41 242M123 242L124 243L123 242M39 243L40 244L39 243M60 244L61 245L60 244M61 245L62 246L61 245M120 245L121 246L120 245M62 246L63 247L62 246M119 246L120 247L119 246M65 248L66 249L65 248M66 249L67 250L66 249M117 249L118 250L117 249M116 251L117 252L116 251M37 253L38 254L37 253M67 253L68 254L67 253M115 253L116 254L115 253M38 254L39 255L38 254M65 254L66 255L65 254M39 255L40 256L39 255M63 255L64 256L63 255M114 255L115 256L114 255M60 256L61 257L60 256M58 257L59 258L58 257M42 258L43 259L42 258M113.333 259.667L113.667 260.333L113.333 259.667M43 260L44 261L43 260M55 260L56 261L55 260M54 261L55 262L54 261z"/>
<path style="fill:#feaa24; stroke:none;" d="M244 261C244 275.143 241.14 292.861 247.327 306C258.065 328.804 290.784 330.749 304.637 310C314.027 295.937 311 277.055 311 261L244 261z"/>
<path style="fill:#a26b8a; stroke:none;" d="M53 262L54 263L53 262M44 263L45 264L44 263M52 264L53 265L52 264M45 265L46 266L45 265M51 265L52 266L51 265M50 266L51 267L50 266M46 267L47 268L46 267M49 267L50 268L49 267M113.333 270.667L113.667 271.333L113.333 270.667M114 275L115 276L114 275M115 277L116 278L115 277z"/>
<path style="fill:#020101; stroke:none;" d="M0 279L0 512L229 512L229 511C192.225 510.696 151.56 493.3 121 473.947C109.123 466.425 98.3082 454.616 86 448.318C69.5205 439.885 46.125 456.648 34.3673 436C25.9783 421.268 34.863 398.228 31.7253 382C30.5203 375.768 25.9454 369.743 23.3086 364C18.5439 353.622 14.4141 342.904 11.0255 332C7.35291 320.182 4.76661 308.173 2.61497 296C1.65057 290.544 2.13492 284.076 0 279M511 279C510.86 329.765 483.823 382.974 452.08 421C448.281 425.552 442.563 429.845 439.696 435C437.804 438.402 440.106 442.627 436.731 445.397C433.279 448.23 427.896 446.988 424 449.72C409.539 459.861 396.427 470.994 381 479.85C352.515 496.203 316.434 510.908 283 511L283 512L512 512L512 348L512 301L511 279z"/>
<path style="fill:#a26b8a; stroke:none;" d="M117 281L118 282L117 281M119 284L120 285L119 284M125 290L126 291L125 290M128 292L129 293L128 292M130 293L131 294L130 293M132 294L133 295L132 294M135.667 295.333L136.333 295.667L135.667 295.333M140 296L140 297L161 297L140 296z"/>
<path style="fill:#544c97; stroke:none;" d="M311 297L310 374L405 374C412.661 374 420.341 373.843 428 374.015C430.992 374.082 435.13 375.242 437.392 372.643C441.116 368.363 436.001 364.559 431.999 364.109C420.939 362.864 409.133 364 398 364C407.929 346.989 416.355 326.641 419 307L464 307C468.018 306.992 477.739 305.896 473.953 299.232C471.78 295.409 466.541 296.904 463 296.985C453.344 297.206 443.659 297 434 297L311 297z"/>
<path style="fill:#a26b8a; stroke:none;" d="M73 299L73 300L120 300C107.823 294.891 86.265 299 73 299M69.6667 300.333L70.3333 300.667L69.6667 300.333z"/>
<path style="fill:#c3cac7; stroke:none;" d="M173 364L173 307C162.822 307 152.106 307.955 142 306.714C134.352 305.775 128.278 301.964 121 300.39C113.207 298.706 103.956 300 96 300C87.6924 300 75.646 297.82 68.0154 301.573C54.7416 308.101 60 335.898 60 348C60 352.147 58.6417 361.175 63.3032 363.397C70.9502 367.04 86.5446 364 95 364L173 364z"/>
<path style="fill:#a26b8a; stroke:none;" d="M67 301L68 302L67 301M130 304L131 305L130 304M62 306L63 307L62 306M140 306L140 307L144 307L140 306z"/>
<path style="fill:#c3cac7; stroke:none;" d="M334 307L334 364L365 364L377.566 362.972L380 351L380 320L377.486 308.028L365 307L334 307z"/>
<path style="fill:#a26b8a; stroke:none;" d="M61 308L62 309L61 308M60.3333 310.667L60.6667 311.333L60.3333 310.667M379 310L380 311L379 310z"/>
<path style="fill:#544c97; stroke:none;" d="M450.257 323.176L432.921 338.931L449.743 356.824L467.079 341.069L450.257 323.176z"/>
<path style="fill:#a26b8a; stroke:none;" d="M60.3333 359.667L60.6667 360.333L60.3333 359.667M379 361L380 362L379 361M378 363L379 364L378 363M134 364L134 365L173 365C162.726 360.689 145.172 364 134 364M334 364L334 365L378 365C366.537 360.19 346.48 364 334 364M47 375L48 376L47 375z"/>
<path style="fill:#c3cac7; stroke:none;" d="M434 437L434 375L311 375L311 385L310.996 392C310.718 411.94 285.149 380.19 276 381.644C264.169 383.523 256.06 398.233 244 401L244 375L110 375L69 375C62.8033 375 55.0094 373.744 49.0154 375.434C44.6391 376.667 42.5311 380.734 42.1049 385C40.9297 396.765 41.9802 409.175 42 421C42.0079 425.741 41.9544 431.133 46.2137 434.258C52.5316 438.893 67.4509 435.914 75 436.004C99.9453 436.301 124.979 437 150 437L434 437z"/>
<path style="fill:#feaa24; stroke:none;" d="M310 375L310 399L311 399L310 375z"/>
<path style="fill:#a26b8a; stroke:none;" d="M43 379L44 380L43 379z"/>
<path style="fill:#feaa24; stroke:none;" d="M276.667 380.333L277.333 380.667L276.667 380.333z"/>
<path style="fill:#a26b8a; stroke:none;" d="M42 381L43 382L42 381z"/>
<path style="fill:#feaa24; stroke:none;" d="M274 381L275 382L274 381M279 381L280 382L279 381M273 382L274 383L273 382M280 382L281 383L280 382M282 383L283 384L282 383M270 384L271 385L270 384M283 384L284 385L283 384M267 386L268 387L267 386M286 386L287 387L286 386M266 387L267 388L266 387M264 388L265 389L264 388M289 388L290 389L289 388M263 389L264 390L263 389M262 390L263 391L262 390M292 390L293 391L292 390M260 391L261 392L260 391M293 391L294 392L293 391M259 392L260 393L259 392M295 392L296 393L295 392M257 393L258 394L257 393M296 393L297 394L296 393M256 394L257 395L256 394M254 395L255 396L254 395M299 395L300 396L299 395M253 396L254 397L253 396M252 397L253 398L252 397M302 397L303 398L302 397M250 398L251 399L250 398M305 399L306 400L305 399M244 400L245 401L244 400M247 400L248 401L247 400M306 400L307 401L306 400M309 400L310 401L309 400z"/>
<path style="fill:#a26b8a; stroke:none;" d="M42 429L43 430L42 429M43 431L44 432L43 431M47 435L48 436L47 435M50 436L50 437L82 437L50 436M85 447L85 448C103.384 461.956 121.011 476.127 142 486.216C212.477 520.095 293.606 520.938 365 489.139C387.879 478.948 407.261 462.985 427 448L396 447L327 447L85 447z"/>
<path style="fill:#feaa24; stroke:none;" d="M424 449L425 450L424 449M405 464L406 465L405 464M121 474L122 475L121 474M390 474L391 475L390 474M126 477L127 478L126 477M135 482L136 483L135 482M147 488L148 489L147 488M156 492L157 493L156 492M190 504L191 505L190 504z"/>
</svg>
